HIERARCHY
ROOT mixamorig:Hips
{
	OFFSET -0.000000 103.991470 2.076077 
	CHANNELS 6 Xposition Yposition Zposition Xrotation Yrotation Zrotation
	JOINT mixamorig:Spine
	{
		OFFSET 0.000009 10.181587 0.131521 
		CHANNELS 6 Xposition Yposition Zposition Xrotation Yrotation Zrotation
		JOINT mixamorig:Spine1
		{
			OFFSET 0.000000 10.083450 -1.000804 
			CHANNELS 6 Xposition Yposition Zposition Xrotation Yrotation Zrotation
			JOINT mixamorig:Spine2
			{
				OFFSET 0.000000 9.100014 -1.373417 
				CHANNELS 6 Xposition Yposition Zposition Xrotation Yrotation Zrotation
				JOINT mixamorig:Neck
				{
					OFFSET 0.000001 16.671661 -2.516168 
					CHANNELS 6 Xposition Yposition Zposition Xrotation Yrotation Zrotation
					JOINT mixamorig:Head
					{
						OFFSET -0.000000 9.617889 1.685008 
						CHANNELS 6 Xposition Yposition Zposition Xrotation Yrotation Zrotation
						JOINT mixamorig:HeadTop_End
						{
							OFFSET -0.000001 17.815155 2.584985 
							CHANNELS 6 Xposition Yposition Zposition Xrotation Yrotation Zrotation
							End Site
							{
								OFFSET 0.000000 13.794479 0.000000 
							}
						}
						JOINT mixamorig:LeftEye
						{
							OFFSET 3.067561 6.409500 9.283554 
							CHANNELS 6 Xposition Yposition Zposition Xrotation Yrotation Zrotation
							End Site
							{
								OFFSET 0.000000 13.794479 0.000000 
							}
						}
						JOINT mixamorig:RightEye
						{
							OFFSET -3.067550 6.409500 9.283547 
							CHANNELS 6 Xposition Yposition Zposition Xrotation Yrotation Zrotation
							End Site
							{
								OFFSET 0.000000 13.794479 0.000000 
							}
						}
					}
				}
				JOINT mixamorig:LeftShoulder
				{
					OFFSET 4.570446 10.945984 -2.627988 
					CHANNELS 6 Xposition Yposition Zposition Xrotation Yrotation Zrotation
					JOINT mixamorig:LeftArm
					{
						OFFSET 10.592371 -0.524582 -2.232120 
						CHANNELS 6 Xposition Yposition Zposition Xrotation Yrotation Zrotation
						JOINT mixamorig:LeftForeArm
						{
							OFFSET 27.841522 -0.000092 0.000038 
							CHANNELS 6 Xposition Yposition Zposition Xrotation Yrotation Zrotation
							JOINT mixamorig:LeftHand
							{
								OFFSET 28.328835 -0.000015 0.000038 
								CHANNELS 6 Xposition Yposition Zposition Xrotation Yrotation Zrotation
								JOINT mixamorig:LeftHandThumb1
								{
									OFFSET 2.466141 -1.575058 2.682414 
									CHANNELS 6 Xposition Yposition Zposition Xrotation Yrotation Zrotation
									JOINT mixamorig:LeftHandThumb2
									{
										OFFSET 3.229805 -1.864685 1.864681 
										CHANNELS 6 Xposition Yposition Zposition Xrotation Yrotation Zrotation
										JOINT mixamorig:LeftHandThumb3
										{
											OFFSET 2.652565 -1.531494 1.531472 
											CHANNELS 6 Xposition Yposition Zposition Xrotation Yrotation Zrotation
											JOINT mixamorig:LeftHandThumb4
											{
												OFFSET 1.954567 -1.128494 1.128492 
												CHANNELS 6 Xposition Yposition Zposition Xrotation Yrotation Zrotation
												End Site
												{
													OFFSET 0.000000 2.523361 0.000000 
												}
											}
										}
									}
								}
								JOINT mixamorig:LeftHandIndex1
								{
									OFFSET 9.109306 -0.517090 2.260073 
									CHANNELS 6 Xposition Yposition Zposition Xrotation Yrotation Zrotation
									JOINT mixamorig:LeftHandIndex2
									{
										OFFSET 3.676407 0.000000 0.000029 
										CHANNELS 6 Xposition Yposition Zposition Xrotation Yrotation Zrotation
										JOINT mixamorig:LeftHandIndex3
										{
											OFFSET 2.883064 0.000031 -0.000043 
											CHANNELS 6 Xposition Yposition Zposition Xrotation Yrotation Zrotation
											JOINT mixamorig:LeftHandIndex4
											{
												OFFSET 2.392723 0.000031 0.000034 
												CHANNELS 6 Xposition Yposition Zposition Xrotation Yrotation Zrotation
												End Site
												{
													OFFSET 0.000000 2.392715 0.000000 
												}
											}
										}
									}
								}
								JOINT mixamorig:LeftHandMiddle1
								{
									OFFSET 9.533401 -0.000031 0.000014 
									CHANNELS 6 Xposition Yposition Zposition Xrotation Yrotation Zrotation
									JOINT mixamorig:LeftHandMiddle2
									{
										OFFSET 3.698235 0.000000 0.000018 
										CHANNELS 6 Xposition Yposition Zposition Xrotation Yrotation Zrotation
										JOINT mixamorig:LeftHandMiddle3
										{
											OFFSET 2.950928 -0.000046 0.000016 
											CHANNELS 6 Xposition Yposition Zposition Xrotation Yrotation Zrotation
											JOINT mixamorig:LeftHandMiddle4
											{
												OFFSET 2.833900 -0.000046 -0.000010 
												CHANNELS 6 Xposition Yposition Zposition Xrotation Yrotation Zrotation
												End Site
												{
													OFFSET 0.000000 2.833908 0.000000 
												}
											}
										}
									}
								}
								JOINT mixamorig:LeftHandRing1
								{
									OFFSET 9.104530 -0.043945 -1.865085 
									CHANNELS 6 Xposition Yposition Zposition Xrotation Yrotation Zrotation
									JOINT mixamorig:LeftHandRing2
									{
										OFFSET 3.154022 0.000000 0.000010 
										CHANNELS 6 Xposition Yposition Zposition Xrotation Yrotation Zrotation
										JOINT mixamorig:LeftHandRing3
										{
											OFFSET 2.937675 -0.000046 -0.000007 
											CHANNELS 6 Xposition Yposition Zposition Xrotation Yrotation Zrotation
											JOINT mixamorig:LeftHandRing4
											{
												OFFSET 2.647453 -0.000046 0.000000 
												CHANNELS 6 Xposition Yposition Zposition Xrotation Yrotation Zrotation
												End Site
												{
													OFFSET 0.000000 2.647446 0.000000 
												}
											}
										}
									}
								}
								JOINT mixamorig:LeftHandPinky1
								{
									OFFSET 8.077782 -0.488663 -3.806067 
									CHANNELS 6 Xposition Yposition Zposition Xrotation Yrotation Zrotation
									JOINT mixamorig:LeftHandPinky2
									{
										OFFSET 3.600029 -0.000015 -0.000027 
										CHANNELS 6 Xposition Yposition Zposition Xrotation Yrotation Zrotation
										JOINT mixamorig:LeftHandPinky3
										{
											OFFSET 2.114212 0.000031 -0.000003 
											CHANNELS 6 Xposition Yposition Zposition Xrotation Yrotation Zrotation
											JOINT mixamorig:LeftHandPinky4
											{
												OFFSET 1.975685 0.000015 -0.000044 
												CHANNELS 6 Xposition Yposition Zposition Xrotation Yrotation Zrotation
												End Site
												{
													OFFSET 0.000000 1.975677 0.000000 
												}
											}
										}
									}
								}
							}
						}
					}
				}
				JOINT mixamorig:RightShoulder
				{
					OFFSET -4.569970 10.946182 -2.628017 
					CHANNELS 6 Xposition Yposition Zposition Xrotation Yrotation Zrotation
					JOINT mixamorig:RightArm
					{
						OFFSET -10.592844 -0.524811 -2.232099 
						CHANNELS 6 Xposition Yposition Zposition Xrotation Yrotation Zrotation
						JOINT mixamorig:RightForeArm
						{
							OFFSET -27.841522 -0.000031 0.000012 
							CHANNELS 6 Xposition Yposition Zposition Xrotation Yrotation Zrotation
							JOINT mixamorig:RightHand
							{
								OFFSET -28.328835 0.000000 0.000056 
								CHANNELS 6 Xposition Yposition Zposition Xrotation Yrotation Zrotation
								JOINT mixamorig:RightHandPinky1
								{
									OFFSET -8.076675 -0.488449 -3.806010 
									CHANNELS 6 Xposition Yposition Zposition Xrotation Yrotation Zrotation
									JOINT mixamorig:RightHandPinky2
									{
										OFFSET -3.600037 0.000031 0.000051 
										CHANNELS 6 Xposition Yposition Zposition Xrotation Yrotation Zrotation
										JOINT mixamorig:RightHandPinky3
										{
											OFFSET -2.114212 0.000015 0.000015 
											CHANNELS 6 Xposition Yposition Zposition Xrotation Yrotation Zrotation
											JOINT mixamorig:RightHandPinky4
											{
												OFFSET -1.975685 -0.000015 -0.000001 
												CHANNELS 6 Xposition Yposition Zposition Xrotation Yrotation Zrotation
												End Site
												{
													OFFSET 0.000000 1.975677 0.000000 
												}
											}
										}
									}
								}
								JOINT mixamorig:RightHandRing1
								{
									OFFSET -9.103592 -0.043915 -1.865072 
									CHANNELS 6 Xposition Yposition Zposition Xrotation Yrotation Zrotation
									JOINT mixamorig:RightHandRing2
									{
										OFFSET -3.154022 0.000031 0.000049 
										CHANNELS 6 Xposition Yposition Zposition Xrotation Yrotation Zrotation
										JOINT mixamorig:RightHandRing3
										{
											OFFSET -2.937675 -0.000046 -0.000040 
											CHANNELS 6 Xposition Yposition Zposition Xrotation Yrotation Zrotation
											JOINT mixamorig:RightHandRing4
											{
												OFFSET -2.647453 0.000031 -0.000002 
												CHANNELS 6 Xposition Yposition Zposition Xrotation Yrotation Zrotation
												End Site
												{
													OFFSET 0.000000 2.647446 0.000000 
												}
											}
										}
									}
								}
								JOINT mixamorig:RightHandMiddle1
								{
									OFFSET -9.532509 -0.000015 0.000017 
									CHANNELS 6 Xposition Yposition Zposition Xrotation Yrotation Zrotation
									JOINT mixamorig:RightHandMiddle2
									{
										OFFSET -3.698235 0.000015 -0.000022 
										CHANNELS 6 Xposition Yposition Zposition Xrotation Yrotation Zrotation
										JOINT mixamorig:RightHandMiddle3
										{
											OFFSET -2.950920 0.000000 -0.000000 
											CHANNELS 6 Xposition Yposition Zposition Xrotation Yrotation Zrotation
											JOINT mixamorig:RightHandMiddle4
											{
												OFFSET -2.833900 0.000015 0.000054 
												CHANNELS 6 Xposition Yposition Zposition Xrotation Yrotation Zrotation
												End Site
												{
													OFFSET 0.000000 2.833908 0.000000 
												}
											}
										}
									}
								}
								JOINT mixamorig:RightHandIndex1
								{
									OFFSET -9.108284 -0.516785 2.260116 
									CHANNELS 6 Xposition Yposition Zposition Xrotation Yrotation Zrotation
									JOINT mixamorig:RightHandIndex2
									{
										OFFSET -3.676407 0.000015 0.000032 
										CHANNELS 6 Xposition Yposition Zposition Xrotation Yrotation Zrotation
										JOINT mixamorig:RightHandIndex3
										{
											OFFSET -2.883064 -0.000046 0.000040 
											CHANNELS 6 Xposition Yposition Zposition Xrotation Yrotation Zrotation
											JOINT mixamorig:RightHandIndex4
											{
												OFFSET -2.392723 0.000031 0.000028 
												CHANNELS 6 Xposition Yposition Zposition Xrotation Yrotation Zrotation
												End Site
												{
													OFFSET 0.000000 2.392715 0.000000 
												}
											}
										}
									}
								}
								JOINT mixamorig:RightHandThumb1
								{
									OFFSET -2.464806 -1.572708 2.682626 
									CHANNELS 6 Xposition Yposition Zposition Xrotation Yrotation Zrotation
									JOINT mixamorig:RightHandThumb2
									{
										OFFSET -3.229774 -1.864716 1.864719 
										CHANNELS 6 Xposition Yposition Zposition Xrotation Yrotation Zrotation
										JOINT mixamorig:RightHandThumb3
										{
											OFFSET -2.652603 -1.531448 1.531446 
											CHANNELS 6 Xposition Yposition Zposition Xrotation Yrotation Zrotation
											JOINT mixamorig:RightHandThumb4
											{
												OFFSET -1.954582 -1.128464 1.128507 
												CHANNELS 6 Xposition Yposition Zposition Xrotation Yrotation Zrotation
												End Site
												{
													OFFSET 0.000000 2.523361 0.000000 
												}
											}
										}
									}
								}
							}
						}
					}
				}
			}
		}
	}
	JOINT mixamorig:LeftUpLeg
	{
		OFFSET 8.207782 -6.751717 -1.599555 
		CHANNELS 6 Xposition Yposition Zposition Xrotation Yrotation Zrotation
		JOINT mixamorig:LeftLeg
		{
			OFFSET -0.000001 -44.370472 0.284643 
			CHANNELS 6 Xposition Yposition Zposition Xrotation Yrotation Zrotation
			JOINT mixamorig:LeftFoot
			{
				OFFSET 0.000001 -44.427872 -2.982191 
				CHANNELS 6 Xposition Yposition Zposition Xrotation Yrotation Zrotation
				JOINT mixamorig:LeftToeBase
				{
					OFFSET -0.000003 -8.728670 10.710560 
					CHANNELS 6 Xposition Yposition Zposition Xrotation Yrotation Zrotation
					JOINT mixamorig:LeftToe_End
					{
						OFFSET -0.000003 -0.000677 9.278137 
						CHANNELS 6 Xposition Yposition Zposition Xrotation Yrotation Zrotation
						End Site
						{
							OFFSET 0.000000 9.278136 0.000000 
						}
					}
				}
			}
		}
	}
	JOINT mixamorig:RightUpLeg
	{
		OFFSET -8.207796 -6.751663 -1.599559 
		CHANNELS 6 Xposition Yposition Zposition Xrotation Yrotation Zrotation
		JOINT mixamorig:RightLeg
		{
			OFFSET 0.000000 -44.370537 0.286156 
			CHANNELS 6 Xposition Yposition Zposition Xrotation Yrotation Zrotation
			JOINT mixamorig:RightFoot
			{
				OFFSET 0.000001 -44.427731 -2.983789 
				CHANNELS 6 Xposition Yposition Zposition Xrotation Yrotation Zrotation
				JOINT mixamorig:RightToeBase
				{
					OFFSET -0.000002 -8.728668 10.710562 
					CHANNELS 6 Xposition Yposition Zposition Xrotation Yrotation Zrotation
					JOINT mixamorig:RightToe_End
					{
						OFFSET -0.000002 -0.000676 9.278120 
						CHANNELS 6 Xposition Yposition Zposition Xrotation Yrotation Zrotation
						End Site
						{
							OFFSET 0.000000 9.278120 0.000000 
						}
					}
				}
			}
		}
	}
}
MOTION
Frames: 3
Frame Time: 0.033333
-5.553160 -26.792812 6.193810 4.325203 -11.244333 3.925230 0.000010 10.181602 0.131521 5.764007 0.089150 0.123031 0.000000 10.083464 -1.000800 11.529162 0.022721 -0.756375 0.000001 9.100006 -1.373414 11.529171 0.022712 -0.756373 0.000003 16.671680 -2.516164 -10.660269 0.507341 -2.491281 -0.000001 9.617894 1.685019 14.816084 4.701366 4.224782 -0.000000 17.815170 2.584982 -0.000002 0.000000 -0.000000 3.067561 6.409516 9.283549 -0.000002 0.000000 -0.000000 -3.067551 6.409516 9.283548 -0.000002 0.000000 -0.000000 4.570450 10.946009 -2.627987 -3.317966 -7.095648 -9.310830 10.592372 -0.524578 -2.232118 -54.060116 -45.218163 -21.119677 27.841528 -0.000087 0.000035 20.068443 -14.229344 -2.166769 28.328838 -0.000002 0.000036 17.303827 -9.127435 29.991083 2.466146 -1.575035 2.682413 0.522480 -9.053131 -8.741945 3.229807 -1.864692 1.864684 -0.332202 0.039516 0.785828 2.652562 -1.531495 1.531475 0.000002 -0.000074 -0.000066 1.954572 -1.128479 1.128491 -0.000000 -0.000001 0.000001 9.109301 -0.517074 2.260073 -1.293929 -13.221104 -3.255360 3.676411 -0.000000 0.000033 0.038786 0.794858 -16.419706 2.883072 0.000061 -0.000046 0.000001 0.000000 -0.000000 2.392723 0.000046 0.000038 0.000001 0.000000 -0.000000 9.533400 -0.000037 0.000014 1.807856 1.976007 -1.565679 3.698226 0.000016 0.000015 -0.088380 -0.297904 -9.792119 2.950912 -0.000046 0.000010 -0.000001 0.000000 0.000000 2.833892 -0.000046 -0.000011 -0.000001 0.000000 0.000000 9.104525 -0.043915 -1.865087 2.685879 14.113120 -11.560041 3.154020 0.000014 0.000013 -0.133959 -1.607457 -12.311046 2.937682 -0.000046 -0.000009 0.000000 -0.000001 0.000000 2.647453 -0.000046 -0.000003 0.000000 -0.000001 0.000000 8.077777 -0.488664 -3.806067 4.656036 19.514692 -13.830414 3.600021 0.000002 -0.000026 -0.489671 -5.393699 -18.002998 2.114223 0.000012 -0.000001 -0.000001 -0.000007 -0.000013 1.975678 0.000016 -0.000048 -0.000000 0.000001 -0.000000 -4.569972 10.946179 -2.628018 -2.003893 -3.574490 11.686711 -10.592845 -0.524789 -2.232100 -2.943087 -13.610024 33.501167 -27.841522 -0.000052 0.000012 12.676069 33.452332 1.950497 -28.328854 -0.000010 0.000052 11.275549 5.936466 -47.422176 -8.076674 -0.488461 -3.806013 7.184076 -17.470642 10.993808 -3.600039 0.000027 0.000055 -0.520321 6.108299 14.624974 -2.114211 0.000018 0.000020 -0.000000 0.000000 -0.000000 -1.975677 -0.000012 -0.000003 -0.000000 0.000000 -0.000000 -9.103589 -0.043921 -1.865073 2.760791 -8.705164 7.649952 -3.154037 0.000014 0.000049 -0.378728 2.723134 23.216522 -2.937666 -0.000034 -0.000043 0.000001 0.000001 -0.000001 -2.647452 0.000042 -0.000003 0.000001 0.000001 -0.000001 -9.532511 -0.000035 0.000016 -0.555718 -3.600050 3.677828 -3.698246 0.000012 -0.000022 -0.308335 1.096887 21.508232 -2.950926 -0.000000 -0.000008 -0.000003 -0.002018 0.000006 -2.833904 0.000015 0.000062 -0.000001 0.000000 -0.000002 -9.108283 -0.516779 2.260114 -1.722129 7.397131 3.888284 -3.676408 0.000014 0.000033 0.142645 -1.107357 16.943125 -2.883064 -0.000046 0.000037 0.000001 -0.000001 -0.000000 -2.392731 0.000031 0.000023 0.000001 -0.000001 -0.000000 -2.464803 -1.572726 2.682624 -15.578463 8.869128 2.574313 -3.229770 -1.864704 1.864716 1.669934 -5.083299 -1.924467 -2.652604 -1.531455 1.531444 0.000005 -0.001217 -0.001234 -1.954580 -1.128451 1.128504 0.000000 -0.000000 -0.000001 8.207783 -6.751704 -1.599565 -55.266304 -8.264944 -2.648006 -0.000001 -44.370468 0.284638 68.194328 -22.863043 -0.095111 0.000004 -44.427876 -2.982187 -19.624672 -3.040612 -0.221840 -0.000003 -8.728670 10.710564 -2.059828 -1.804243 -1.204691 -0.000005 -0.000677 9.278133 -0.000000 0.000001 0.000000 -8.207788 -6.751665 -1.599560 -22.825373 -35.546783 -35.135242 0.000000 -44.370541 0.286158 64.532547 -18.098043 5.780436 0.000002 -44.427723 -2.983784 -38.592609 2.798314 29.948929 -0.000004 -8.728670 10.710564 -12.338995 -5.352211 3.238261 -0.000002 -0.000676 9.278118 -0.000000 -0.000000 -0.000000 
-4.939526 -35.828842 5.404485 8.779506 -11.956012 8.787469 0.000008 10.181605 0.131521 6.839424 0.587425 -0.283942 0.000001 10.083463 -1.000801 13.685360 0.798339 -0.937416 -0.000000 9.100033 -1.373418 13.685344 0.798338 -0.937418 -0.000000 16.671680 -2.516166 -15.568339 -0.376453 -3.797668 -0.000001 9.617874 1.685007 1.922446 -1.438333 2.275881 0.000000 17.815170 2.584984 -0.000000 -0.000000 0.000000 3.067560 6.409515 9.283547 -0.000000 -0.000000 0.000000 -3.067552 6.409515 9.283543 -0.000000 -0.000000 0.000000 4.570448 10.945978 -2.627985 -3.010922 -8.804117 -8.944806 10.592369 -0.524575 -2.232119 -57.603077 -48.063885 -30.875696 27.841520 -0.000075 0.000036 19.801479 -6.964448 -2.385157 28.328831 -0.000007 0.000036 15.828890 -12.961315 29.774673 2.466149 -1.575055 2.682417 -0.021900 -9.857195 -9.004361 3.229798 -1.864701 1.864682 -0.332200 0.039532 0.785822 2.652562 -1.531493 1.531476 0.000003 -0.000074 -0.000066 1.954575 -1.128509 1.128495 -0.000000 0.000000 -0.000000 9.109309 -0.517097 2.260075 -1.315562 -13.592330 -3.223027 3.676402 -0.000012 0.000032 0.038655 0.794893 -16.419699 2.883054 0.000046 -0.000048 0.000001 0.000000 0.000001 2.392712 0.000031 0.000033 0.000001 0.000000 0.000001 9.533398 -0.000020 0.000016 1.913819 1.517504 -0.808514 3.698236 -0.000006 0.000016 -0.073763 -0.220274 -9.075313 2.950920 -0.000031 0.000017 -0.000000 0.000000 -0.000000 2.833901 -0.000046 -0.000011 -0.000000 0.000000 -0.000000 9.104533 -0.043952 -1.865081 2.722217 14.064362 -10.394085 3.154028 -0.000013 0.000012 -0.121843 -1.536584 -11.143120 2.937676 -0.000043 -0.000005 -0.000000 0.000000 -0.000000 2.647446 -0.000027 -0.000003 -0.000000 0.000000 -0.000000 8.077791 -0.488674 -3.806064 4.669499 19.582170 -12.570454 3.600039 -0.000003 -0.000027 -0.481666 -5.367074 -16.735811 2.114212 0.000015 -0.000004 -0.000001 -0.000011 -0.000012 1.975674 0.000014 -0.000046 -0.000000 -0.000002 0.000001 -4.569970 10.946181 -2.628018 -2.011528 -1.286853 12.787354 -10.592842 -0.524783 -2.232092 -5.886445 -6.612819 38.073944 -27.841516 -0.000026 0.000010 11.678266 22.387470 3.572574 -28.328835 0.000013 0.000055 11.927097 10.582628 -39.136749 -8.076677 -0.488452 -3.806013 7.299681 -17.961714 10.201626 -3.600035 0.000033 0.000052 -0.491543 5.991348 13.058924 -2.114213 0.000017 0.000018 -0.000000 -0.000002 -0.000003 -1.975678 -0.000014 0.000005 -0.000000 -0.000002 -0.000003 -9.103590 -0.043906 -1.865075 2.769293 -8.785566 6.811372 -3.154013 0.000044 0.000048 -0.349299 2.656479 22.374578 -2.937668 -0.000046 -0.000041 -0.000000 -0.000001 -0.000000 -2.647453 0.000031 -0.000003 -0.000000 -0.000001 -0.000000 -9.532510 -0.000006 0.000015 -0.552227 -3.642106 3.140278 -3.698229 0.000015 -0.000032 -0.292029 1.051810 20.970922 -2.950912 0.000005 -0.000002 -0.000000 -0.002019 0.000004 -2.833909 0.000015 0.000057 0.000001 0.000000 0.000000 -9.108277 -0.516769 2.260112 -1.756726 7.908275 3.852581 -3.676408 0.000013 0.000027 0.141088 -1.107841 16.943087 -2.883060 -0.000045 0.000041 -0.000000 0.000000 -0.000002 -2.392719 0.000032 0.000029 -0.000000 0.000000 -0.000002 -2.464813 -1.572709 2.682625 -16.003622 9.672833 2.805218 -3.229773 -1.864694 1.864719 1.298306 -4.250402 -1.822067 -2.652600 -1.531453 1.531443 0.000005 -0.001216 -0.001239 -1.954577 -1.128476 1.128506 0.000000 0.000001 -0.000002 8.207782 -6.751715 -1.599560 -70.642181 -7.337088 -4.837522 -0.000001 -44.370472 0.284640 82.435921 -22.500380 -3.243599 -0.000004 -44.427876 -2.982188 -25.000765 -3.096118 0.886837 -0.000005 -8.728669 10.710561 -1.869135 -1.730639 -1.034574 -0.000003 -0.000677 9.278139 -0.000000 0.000001 0.000000 -8.207789 -6.751655 -1.599561 -38.487354 -28.909012 -45.256023 0.000000 -44.370537 0.286146 82.712044 -13.407894 1.667345 0.000005 -44.427727 -2.983784 -47.008011 -0.949048 32.304054 0.000003 -8.728669 10.710562 -14.990262 -4.022174 0.226064 -0.000003 -0.000677 9.278122 0.000000 -0.000000 0.000000 
-3.921606 -41.324966 4.589643 13.173339 -13.220468 14.064473 0.000009 10.181586 0.131525 8.086707 0.666388 -0.764714 -0.000000 10.083455 -1.000807 16.168789 1.008028 -0.781447 0.000002 9.100019 -1.373411 16.168802 1.008027 -0.781446 0.000001 16.671673 -2.516163 -20.246515 -1.308300 -3.971499 0.000003 9.617873 1.685009 -13.094505 -5.561058 -1.163451 -0.000000 17.815140 2.584990 -0.000001 0.000001 -0.000000 3.067558 6.409500 9.283554 -0.000001 0.000001 -0.000000 -3.067551 6.409500 9.283545 -0.000001 0.000001 -0.000000 4.570447 10.945977 -2.627979 -2.691182 -9.807265 -8.806758 10.592365 -0.524581 -2.232118 -57.781548 -50.069981 -36.286686 27.841526 -0.000092 0.000037 20.210930 -1.915205 -2.709017 28.328846 -0.000023 0.000034 13.962472 -16.223276 29.206415 2.466141 -1.575064 2.682415 -0.802205 -10.992432 -9.390758 3.229804 -1.864678 1.864684 -0.332201 0.039506 0.785839 2.652574 -1.531491 1.531470 0.000004 -0.000075 -0.000064 1.954577 -1.128493 1.128490 -0.000000 -0.000001 -0.000001 9.109309 -0.517090 2.260074 -1.345928 -14.118513 -3.177344 3.676419 0.000013 0.000030 0.038513 0.794942 -16.419701 2.883063 0.000048 -0.000046 -0.000001 -0.000002 0.000000 2.392730 0.000048 0.000028 -0.000001 -0.000002 0.000000 9.533399 -0.000036 0.000015 2.084824 0.869971 0.263910 3.698230 -0.000017 0.000017 -0.055062 -0.109892 -8.059382 2.950924 -0.000031 0.000011 -0.000000 -0.000000 -0.000001 2.833904 -0.000062 -0.000007 -0.000000 -0.000000 -0.000001 9.104537 -0.043942 -1.865086 2.779531 13.995821 -8.743043 3.154034 -0.000014 0.000010 -0.107066 -1.435669 -9.487873 2.937682 -0.000045 -0.000004 -0.000000 0.000000 0.000000 2.647452 -0.000044 0.000000 -0.000000 0.000000 0.000000 8.077778 -0.488682 -3.806062 4.684913 19.678585 -10.783579 3.600012 -0.000018 -0.000028 -0.471274 -5.329074 -14.939874 2.114207 0.000027 0.000001 -0.000000 -0.000010 -0.000013 1.975689 0.000013 -0.000046 0.000001 0.000001 0.000001 -4.569968 10.946200 -2.628014 -2.166579 0.999012 14.496163 -10.592839 -0.524794 -2.232102 -9.714013 1.128619 37.970753 -27.841520 -0.000021 0.000014 12.604674 12.985739 4.845764 -28.328842 0.000025 0.000056 11.379773 14.988485 -34.172619 -8.076678 -0.488456 -3.806007 7.443019 -18.664248 9.076930 -3.600029 0.000046 0.000052 -0.456160 5.824341 10.839964 -2.114212 0.000015 0.000017 -0.000002 -0.000001 -0.000000 -1.975677 -0.000016 -0.000005 -0.000002 -0.000001 -0.000000 -9.103590 -0.043901 -1.865069 2.778796 -8.899947 5.622482 -3.154027 0.000012 0.000049 -0.308476 2.561513 21.181364 -2.937668 -0.000049 -0.000043 -0.000003 0.000001 -0.000000 -2.647461 0.000028 0.000000 -0.000003 0.000001 -0.000000 -9.532502 0.000018 0.000018 -0.547848 -3.700858 2.378282 -3.698219 0.000016 -0.000023 -0.270615 0.987458 20.209339 -2.950922 0.000007 0.000007 -0.000001 -0.002018 0.000004 -2.833902 0.000019 0.000050 0.000001 0.000002 0.000000 -9.108285 -0.516790 2.260120 -1.805270 8.632765 3.802330 -3.676407 0.000027 0.000036 0.139596 -1.108325 16.943083 -2.883060 -0.000044 0.000038 -0.000000 0.000000 -0.000001 -2.392719 0.000032 0.000025 -0.000000 0.000000 -0.000001 -2.464810 -1.572714 2.682627 -16.613817 10.808952 3.143866 -3.229773 -1.864707 1.864722 0.769640 -3.071064 -1.667949 -2.652612 -1.531451 1.531446 0.000006 -0.001216 -0.001237 -1.954579 -1.128466 1.128506 -0.000001 -0.000001 -0.000001 8.207784 -6.751715 -1.599562 -80.941101 -4.467459 -5.960316 -0.000002 -44.370476 0.284651 89.570221 -21.365202 -4.338122 0.000000 -44.427868 -2.982192 -26.466122 -2.781476 0.409598 -0.000004 -8.728670 10.710559 -1.601705 -1.672735 -1.207705 -0.000004 -0.000677 9.278135 0.000000 -0.000000 -0.000000 -8.207801 -6.751662 -1.599557 -48.743649 -19.233599 -50.141151 -0.000002 -44.370533 0.286157 94.762375 -11.193959 -1.069169 0.000005 -44.427723 -2.983784 -46.165260 -0.935603 33.810429 -0.000003 -8.728668 10.710564 -21.279184 -4.035163 -0.253274 -0.000002 -0.000676 9.278118 0.000001 -0.000000 -0.000000 
